<svg width="393" height="141" viewBox="0 0 393 141" fill="none" xmlns="http://www.w3.org/2000/svg">
<path d="M297.34 100.436H297.84V99.9356V60.6655V60.1655H297.34H289.02H288.52V60.6655V99.9356V100.436H289.02H297.34Z" fill="#FEFF59" stroke="#FEFF59"/>
<path d="M317.66 118.448H318.16V117.948V41.4021V40.9021H317.66H309.34H308.84V41.4021V117.948V118.448H309.34H317.66Z" fill="#FEFF59" stroke="#FEFF59"/>
<path d="M390.642 139.895H391.142V139.395V131.738V131.238H390.642H349.97H349.47V131.738V139.395V139.895H349.97H390.642Z" fill="#FEFF59" stroke="#FEFF59"/>
<path d="M375.44 118.035H353.144V115.482H375.44V118.035Z" fill="#FEFF59"/>
<path d="M375.44 118.035H353.144V115.482H375.44V118.035Z" stroke="#FEFF59"/>
<path d="M375.44 99.2162H353.144V96.6626H375.44V99.2162Z" fill="#FEFF59"/>
<path d="M375.44 99.2162H353.144V96.6626H375.44V99.2162Z" stroke="#FEFF59"/>
<path d="M375.44 80.5104H353.144V77.9568H375.44V80.5104Z" fill="#FEFF59"/>
<path d="M375.44 80.5104H353.144V77.9568H375.44V80.5104Z" stroke="#FEFF59"/>
<path d="M375.44 61.7033H353.144V59.1497H375.44V61.7033Z" fill="#FEFF59"/>
<path d="M375.44 61.7033H353.144V59.1497H375.44V61.7033Z" stroke="#FEFF59"/>
<path d="M375.44 42.8844H353.144V40.3308H375.44V42.8844Z" fill="#FEFF59"/>
<path d="M375.44 42.8844H353.144V40.3308H375.44V42.8844Z" stroke="#FEFF59"/>
<path d="M375.44 24.2817H353.144V21.728H375.44V24.2817Z" fill="#FEFF59"/>
<path d="M375.44 24.2817H353.144V21.728H375.44V24.2817Z" stroke="#FEFF59"/>
<path d="M390.647 9.15729H391.147V8.65729V1V0.5H390.647H353.752H353.252V1V8.65729V9.15729H353.752H390.647Z" fill="#FEFF59" stroke="#FEFF59"/>
<path d="M375.14 28.7173C370.263 28.7173 364.916 27.6156 362.433 23.3662L362.762 23.1998L362.032 22.1041C362.361 21.9165 362.726 21.6925 363.11 21.4564C365.01 20.016 367.24 18.9916 369.633 18.4605C372.026 17.9293 374.518 17.9054 376.922 18.3905L378.567 18.784C380.112 19.1836 381.68 19.5088 383.263 19.7585C384.139 19.9496 385.05 19.9674 385.935 19.8109C386.82 19.6544 387.659 19.3271 388.396 18.8505L392.671 15.2913L390.632 20.2579C389.552 22.5639 387.813 24.5576 385.601 26.0274C383.389 27.4971 380.785 28.3879 378.067 28.6053C377.129 28.6688 376.146 28.7173 375.14 28.7173ZM365.518 23.0545C368.148 26.1114 373.561 26.3837 377.823 26.0508C380.926 25.7783 383.814 24.4716 385.943 22.3765C384.904 22.4673 383.857 22.4317 382.828 22.2706C381.161 22.0115 379.509 21.673 377.879 21.2567L376.235 20.8663C374.384 20.4825 372.463 20.4797 370.611 20.8579C368.758 21.2362 367.019 21.9862 365.518 23.0545Z" fill="#FEFF59"/>
<path d="M375.14 28.7173C370.263 28.7173 364.916 27.6156 362.433 23.3662L362.762 23.1998L362.032 22.1041C362.361 21.9165 362.726 21.6925 363.11 21.4564C365.01 20.016 367.24 18.9916 369.633 18.4605C372.026 17.9293 374.518 17.9054 376.922 18.3905L378.567 18.784C380.112 19.1836 381.68 19.5088 383.263 19.7585C384.139 19.9496 385.05 19.9674 385.935 19.8109C386.82 19.6544 387.659 19.3271 388.396 18.8505L392.671 15.2913L390.632 20.2579C389.552 22.5639 387.813 24.5576 385.601 26.0274C383.389 27.4971 380.785 28.3879 378.067 28.6053C377.129 28.6688 376.146 28.7173 375.14 28.7173ZM365.518 23.0545C368.148 26.1114 373.561 26.3837 377.823 26.0508C380.926 25.7783 383.814 24.4716 385.943 22.3765C384.904 22.4673 383.857 22.4317 382.828 22.2706C381.161 22.0115 379.509 21.673 377.879 21.2567L376.235 20.8663C374.384 20.4825 372.463 20.4797 370.611 20.8579C368.758 21.2362 367.019 21.9862 365.518 23.0545Z" stroke="#FEFF59"/>
<path d="M375.142 47.225C370.266 47.225 364.918 46.1233 362.435 41.8739L362.764 41.7075L362.024 40.6149C362.353 40.4272 362.718 40.2033 363.103 39.9672C365.003 38.5268 367.233 37.5023 369.626 36.9712C372.018 36.4401 374.511 36.4162 376.915 36.9012L378.559 37.2947C380.105 37.6943 381.673 38.0196 383.255 38.2693C384.132 38.4603 385.043 38.4782 385.928 38.3217C386.813 38.1651 387.651 37.8378 388.389 37.3613L392.664 33.802L390.605 38.7626C389.526 41.0631 387.791 43.0524 385.585 44.5202C383.378 45.988 380.781 46.8796 378.069 47.1009C377.132 47.1765 376.149 47.225 375.142 47.225ZM365.52 41.5622C368.151 44.6191 373.564 44.8915 377.826 44.5585C380.927 44.2893 383.814 42.987 385.945 40.8963C384.907 40.9871 383.86 40.9515 382.831 40.7904C381.163 40.5283 379.511 40.1868 377.882 39.7674L376.238 39.377C374.386 38.9928 372.466 38.9895 370.613 39.3672C368.761 39.745 367.022 40.4945 365.52 41.5622Z" fill="#FEFF59"/>
<path d="M375.142 47.225C370.266 47.225 364.918 46.1233 362.435 41.8739L362.764 41.7075L362.024 40.6149C362.353 40.4272 362.718 40.2033 363.103 39.9672C365.003 38.5268 367.233 37.5023 369.626 36.9712C372.018 36.4401 374.511 36.4162 376.915 36.9012L378.559 37.2947C380.105 37.6943 381.673 38.0196 383.255 38.2693C384.132 38.4603 385.043 38.4782 385.928 38.3217C386.813 38.1651 387.651 37.8378 388.389 37.3613L392.664 33.802L390.605 38.7626C389.526 41.0631 387.791 43.0524 385.585 44.5202C383.378 45.988 380.781 46.8796 378.069 47.1009C377.132 47.1765 376.149 47.225 375.142 47.225ZM365.52 41.5622C368.151 44.6191 373.564 44.8915 377.826 44.5585C380.927 44.2893 383.814 42.987 385.945 40.8963C384.907 40.9871 383.86 40.9515 382.831 40.7904C381.163 40.5283 379.511 40.1868 377.882 39.7674L376.238 39.377C374.386 38.9928 372.466 38.9895 370.613 39.3672C368.761 39.745 367.022 40.4945 365.52 41.5622Z" stroke="#FEFF59"/>
<path d="M375.142 66.1388C370.266 66.1388 364.918 65.0371 362.435 60.7878L362.764 60.6213L362.024 59.5287C362.353 59.3411 362.718 59.1171 363.103 58.8811L363.103 58.881C365.003 57.4406 367.233 56.4161 369.626 55.885C372.018 55.3539 374.511 55.33 376.915 55.8151L378.559 56.2085C380.105 56.6081 381.673 56.9334 383.255 57.1831C384.132 57.3741 385.043 57.392 385.928 57.2355C386.813 57.079 387.651 56.7516 388.389 56.2751L392.664 52.7158L390.635 57.6643C389.555 59.9703 387.816 61.964 385.603 63.4338C383.391 64.9035 380.788 65.7943 378.069 66.0117C377.132 66.0783 376.149 66.1388 375.142 66.1388ZM365.52 60.479C368.151 63.5359 373.564 63.8083 377.826 63.4754C380.931 63.1981 383.819 61.8847 385.945 59.7829C384.907 59.8737 383.86 59.8381 382.831 59.677C381.163 59.4149 379.511 59.0734 377.882 58.654L376.238 58.2636C374.385 57.8815 372.464 57.8806 370.612 58.261C368.759 58.6413 367.02 59.3936 365.52 60.4639V60.479Z" fill="#FEFF59"/>
<path d="M375.142 66.1388C370.266 66.1388 364.918 65.0371 362.435 60.7878L362.764 60.6213L362.024 59.5287C362.353 59.3411 362.718 59.1171 363.103 58.8811L363.103 58.881C365.003 57.4406 367.233 56.4161 369.626 55.885C372.018 55.3539 374.511 55.33 376.915 55.8151L378.559 56.2085C380.105 56.6081 381.673 56.9334 383.255 57.1831C384.132 57.3741 385.043 57.392 385.928 57.2355C386.813 57.079 387.651 56.7516 388.389 56.2751L392.664 52.7158L390.635 57.6643C389.555 59.9703 387.816 61.964 385.603 63.4338C383.391 64.9035 380.788 65.7943 378.069 66.0117C377.132 66.0783 376.149 66.1388 375.142 66.1388ZM365.52 60.479C368.151 63.5359 373.564 63.8083 377.826 63.4754C380.931 63.1981 383.819 61.8847 385.945 59.7829C384.907 59.8737 383.86 59.8381 382.831 59.677C381.163 59.4149 379.511 59.0734 377.882 58.654L376.238 58.2636C374.385 57.8815 372.464 57.8806 370.612 58.261C368.759 58.6413 367.02 59.3936 365.52 60.4639V60.479Z" stroke="#FEFF59"/>
<path d="M375.142 85.0226C370.266 85.0226 364.918 83.9209 362.435 79.6715L362.764 79.5051L362.024 78.4125C362.353 78.2249 362.718 78.0009 363.103 77.7649L363.103 77.7648C365.003 76.3244 367.233 75.2999 369.626 74.7688C372.018 74.2377 374.511 74.2138 376.915 74.6989L378.559 75.0923C380.105 75.4919 381.673 75.8172 383.255 76.0669C384.132 76.2579 385.043 76.2758 385.928 76.1193C386.813 75.9628 387.651 75.6354 388.389 75.1589L392.664 71.5996L390.635 76.5481C389.555 78.8541 387.816 80.8478 385.603 82.3175C383.391 83.7873 380.788 84.6781 378.069 84.8955C377.132 84.9802 376.149 85.0226 375.142 85.0226ZM365.52 79.3628C368.151 82.4197 373.564 82.6921 377.826 82.3592C380.927 82.0899 383.814 80.7876 385.945 78.697C384.907 78.7877 383.86 78.7521 382.831 78.5911C381.163 78.3289 379.511 77.9875 377.882 77.5681L376.238 77.1776C374.386 76.7939 372.466 76.791 370.613 77.1693C368.76 77.5476 367.021 78.2946 365.52 79.3628Z" fill="#FEFF59"/>
<path d="M375.142 85.0226C370.266 85.0226 364.918 83.9209 362.435 79.6715L362.764 79.5051L362.024 78.4125C362.353 78.2249 362.718 78.0009 363.103 77.7649L363.103 77.7648C365.003 76.3244 367.233 75.2999 369.626 74.7688C372.018 74.2377 374.511 74.2138 376.915 74.6989L378.559 75.0923C380.105 75.4919 381.673 75.8172 383.255 76.0669C384.132 76.2579 385.043 76.2758 385.928 76.1193C386.813 75.9628 387.651 75.6354 388.389 75.1589L392.664 71.5996L390.635 76.5481C389.555 78.8541 387.816 80.8478 385.603 82.3175C383.391 83.7873 380.788 84.6781 378.069 84.8955C377.132 84.9802 376.149 85.0226 375.142 85.0226ZM365.52 79.3628C368.151 82.4197 373.564 82.6921 377.826 82.3592C380.927 82.0899 383.814 80.7876 385.945 78.697C384.907 78.7877 383.86 78.7521 382.831 78.5911C381.163 78.3289 379.511 77.9875 377.882 77.5681L376.238 77.1776C374.386 76.7939 372.466 76.791 370.613 77.1693C368.76 77.5476 367.021 78.2946 365.52 79.3628Z" stroke="#FEFF59"/>
<path d="M375.142 103.752C370.266 103.752 364.918 102.651 362.435 98.4013L362.764 98.2348L362.024 97.1422C362.353 96.9546 362.718 96.7306 363.103 96.4945C365.003 95.0541 367.233 94.0297 369.626 93.4985C372.018 92.9674 374.511 92.9435 376.915 93.4286L378.559 93.822C380.105 94.2216 381.673 94.5469 383.255 94.7966C384.132 94.9877 385.043 95.0055 385.928 94.849C386.813 94.6925 387.651 94.3652 388.389 93.8886L392.664 90.3293L390.605 95.2899C389.525 97.596 387.786 99.5897 385.574 101.059C383.361 102.529 380.758 103.42 378.04 103.637C377.132 103.71 376.149 103.752 375.142 103.752ZM365.52 98.0926C368.151 101.149 373.564 101.422 377.826 101.089C380.927 100.82 383.814 99.5173 385.945 97.4267C384.907 97.5175 383.86 97.4819 382.831 97.3208C381.163 97.0586 379.511 96.7172 377.882 96.2978L376.238 95.9074C374.387 95.5228 372.466 95.519 370.614 95.8962C368.761 96.2734 367.022 97.0223 365.52 98.0895V98.0926Z" fill="#FEFF59"/>
<path d="M375.142 103.752C370.266 103.752 364.918 102.651 362.435 98.4013L362.764 98.2348L362.024 97.1422C362.353 96.9546 362.718 96.7306 363.103 96.4945C365.003 95.0541 367.233 94.0297 369.626 93.4985C372.018 92.9674 374.511 92.9435 376.915 93.4286L378.559 93.822C380.105 94.2216 381.673 94.5469 383.255 94.7966C384.132 94.9877 385.043 95.0055 385.928 94.849C386.813 94.6925 387.651 94.3652 388.389 93.8886L392.664 90.3293L390.605 95.2899C389.525 97.596 387.786 99.5897 385.574 101.059C383.361 102.529 380.758 103.42 378.04 103.637C377.132 103.71 376.149 103.752 375.142 103.752ZM365.52 98.0926C368.151 101.149 373.564 101.422 377.826 101.089C380.927 100.82 383.814 99.5173 385.945 97.4267C384.907 97.5175 383.86 97.4819 382.831 97.3208C381.163 97.0586 379.511 96.7172 377.882 96.2978L376.238 95.9074C374.387 95.5228 372.466 95.519 370.614 95.8962C368.761 96.2734 367.022 97.0223 365.52 98.0895V98.0926Z" stroke="#FEFF59"/>
<path d="M209.202 68.6273H209.702V68.1273V60.47V59.97H209.202H184.686H184.186V60.47V68.1273V68.6273H184.686H209.202Z" fill="#FEFF59" stroke="#FEFF59"/>
<path d="M209.202 83.6934H209.702V83.1934V75.5361V75.0361H209.202H184.686H184.186V75.5361V83.1934V83.6934H184.686H209.202Z" fill="#FEFF59" stroke="#FEFF59"/>
<path d="M184.966 140.091H185.466V139.591V1.03589V0.535889H184.966H176.646H176.146V1.03589V139.591V140.091H176.646H184.966Z" fill="#FEFF59" stroke="#FEFF59"/>
<path d="M216.046 140.065H216.546V139.565V1.01074V0.510742H216.046H207.726H207.226V1.01074V139.565V140.065H207.726H216.046Z" fill="#FEFF59" stroke="#FEFF59"/>
<path d="M103.671 100.463H104.171V99.9635V60.6934V60.1934H103.671H95.3511H94.8511V60.6934V99.9635V100.463H95.3511H103.671Z" fill="#FEFF59" stroke="#FEFF59"/>
<path d="M144.314 102.705H144.814L144.814 102.205L144.817 94.5476L144.818 94.0474H144.317H95.3511H94.8511V94.5474V102.205V102.705H95.3511H144.314Z" fill="#FEFF59" stroke="#FEFF59"/>
<path d="M297.337 102.676H297.837L297.837 102.176L297.84 94.5185L297.841 94.0183H297.34H248.374H247.874V94.5183V102.176V102.676H248.374H297.337Z" fill="#FEFF59" stroke="#FEFF59"/>
<path d="M144.319 99.8155H144.819V99.3155V41.4409V40.9409H144.319H135.999H135.499V41.4409V99.3155V99.8155H135.999H144.319Z" fill="#FEFF59" stroke="#FEFF59"/>
<path d="M256.694 99.7897H257.194V99.2897V41.415V40.915H256.694H248.374H247.874V41.415V99.2897V99.7897H248.374H256.694Z" fill="#FEFF59" stroke="#FEFF59"/>
<path d="M74.5274 46.2066L74.5289 46.7063L75.0286 46.7051L121.485 46.5931H144.33H144.83V46.0931V38.4358V37.9358H144.33L121.472 37.9358L121.47 37.9358L75.0032 38.0478L74.5029 38.049L74.5044 38.5493L74.5274 46.2066Z" fill="#FEFF59" stroke="#FEFF59"/>
<path d="M317.661 46.6775L318.16 46.6787L318.162 46.179L318.185 38.5217L318.186 38.0214L317.686 38.0202L271.209 37.9082H271.208H248.362H247.862V38.4082V46.0655V46.5655H248.362H271.198L317.661 46.6775Z" fill="#FEFF59" stroke="#FEFF59"/>
<path d="M83.3508 118.474H83.8508V117.974V41.4282V40.9282H83.3508H75.0308H74.5308V41.4282V117.974V118.474H75.0308H83.3508Z" fill="#FEFF59" stroke="#FEFF59"/>
<path d="M74.606 120.912V121.412L75.1064 121.412L164.762 121.327L165.262 121.327V120.827V113.17V112.669L164.761 112.67L75.1055 112.754L74.606 112.755V113.254V120.912Z" fill="#FEFF59" stroke="#FEFF59"/>
<path d="M317.585 121.38L318.085 121.38L318.085 120.88L318.089 113.232L318.089 112.732L317.589 112.732L227.934 112.647L227.433 112.646V113.147V120.804V121.304L227.933 121.304L317.585 121.38Z" fill="#FEFF59" stroke="#FEFF59"/>
<path d="M155.973 119.41L155.973 119.91L156.473 119.909L164.793 119.906L165.293 119.906L165.293 119.406L165.141 22.6271L165.141 22.1279H164.641H156.321H155.821L155.821 22.6287L155.973 119.41Z" fill="#FEFF59" stroke="#FEFF59"/>
<path d="M236.22 119.878H236.72L236.72 119.379L236.872 22.597L236.872 22.0962H236.372H228.052H227.552L227.552 22.5954L227.4 119.377L227.4 119.878H227.9H236.22Z" fill="#FEFF59" stroke="#FEFF59"/>
<path d="M54.2154 27.5558L54.2169 28.0554L54.7166 28.0542L86.3052 27.9786H164.632H165.132V27.4786V19.8213V19.3213H164.632L86.2953 19.3213L86.2941 19.3213L54.6912 19.397L54.1909 19.3982L54.1924 19.8985L54.2154 27.5558Z" fill="#FEFF59" stroke="#FEFF59"/>
<path d="M337.973 28.0276L338.473 28.0288L338.474 27.5291L338.497 19.8718L338.499 19.3715L337.999 19.3703L306.386 19.2947H306.385H228.058H227.558V19.7947V27.452V27.952H228.058L306.374 27.952L306.375 27.952L337.973 28.0276Z" fill="#FEFF59" stroke="#FEFF59"/>
<path d="M63.0285 137.15H63.5285V136.65V23.5615V23.0615H63.0285H54.7085H54.2085V23.5615V136.65V137.15H54.7085H63.0285Z" fill="#FEFF59" stroke="#FEFF59"/>
<path d="M54.272 139.828V140.329L54.7728 140.328L181.816 140.117L182.315 140.116V139.617V131.959V131.458L181.814 131.459L54.7711 131.671L54.272 131.672V132.171V139.828Z" fill="#FEFF59" stroke="#FEFF59"/>
<path d="M181.659 9.18806H182.159V8.68806V1.03076V0.530762H181.659H38.5444H38.0444V1.03076V8.68806V9.18806H38.5444H181.659Z" fill="#FEFF59" stroke="#FEFF59"/>
<path d="M42.7043 137.035H43.2043V136.535V3.92163V3.42163H42.7043H34.3843H33.8843V3.92163V136.535V137.035H34.3843H42.7043Z" fill="#FEFF59" stroke="#FEFF59"/>
<path d="M337.98 137.122H338.48V136.622V23.5332V23.0332H337.98H329.66H329.16V23.5332V136.622V137.122H329.66H337.98Z" fill="#FEFF59" stroke="#FEFF59"/>
<path d="M337.919 140.297L338.42 140.298V139.797V132.137V131.638L337.921 131.637L210.861 131.428L210.36 131.427V131.928V139.586V140.085L210.86 140.086L337.919 140.297Z" fill="#FEFF59" stroke="#FEFF59"/>
<path d="M354.144 9.15729H354.644V8.65729V1V0.5H354.144H211.03H210.53V1V8.65729V9.15729H211.03H354.144Z" fill="#FEFF59" stroke="#FEFF59"/>
<path d="M358.301 137.004H358.801V136.504V3.89062V3.39062H358.301H349.981H349.481V3.89062V136.504V137.004H349.981H358.301Z" fill="#FEFF59" stroke="#FEFF59"/>
<path d="M118.807 65.2889H119.307V64.7889V57.1316V56.6316H118.807H95.373H94.873V57.1316V64.7889V65.2889H95.373H118.807Z" fill="#FEFF59" stroke="#FEFF59"/>
<path d="M297.319 65.2603H297.819V64.7603V57.103V56.603H297.319H273.885H273.385V57.103V64.7603V65.2603H273.885H297.319Z" fill="#FEFF59" stroke="#FEFF59"/>
<path d="M42.722 139.922H43.222V139.422V131.764V131.264H42.722H2.04932H1.54932V131.764V139.422V139.922H2.04932H42.722Z" fill="#FEFF59" stroke="#FEFF59"/>
<path d="M39.5468 118.062H17.2505V115.509H39.5468V118.062Z" fill="#FEFF59"/>
<path d="M39.5468 118.062H17.2505V115.509H39.5468V118.062Z" stroke="#FEFF59"/>
<path d="M39.5468 99.2441H17.2505V96.6904H39.5468V99.2441Z" fill="#FEFF59"/>
<path d="M39.5468 99.2441H17.2505V96.6904H39.5468V99.2441Z" stroke="#FEFF59"/>
<path d="M39.5468 80.5378H17.2505V77.9841H39.5468V80.5378Z" fill="#FEFF59"/>
<path d="M39.5468 80.5378H17.2505V77.9841H39.5468V80.5378Z" stroke="#FEFF59"/>
<path d="M39.5468 61.7314H17.2505V59.1777H39.5468V61.7314Z" fill="#FEFF59"/>
<path d="M39.5468 61.7314H17.2505V59.1777H39.5468V61.7314Z" stroke="#FEFF59"/>
<path d="M39.5468 42.9111H17.2505V40.3574H39.5468V42.9111Z" fill="#FEFF59"/>
<path d="M39.5468 42.9111H17.2505V40.3574H39.5468V42.9111Z" stroke="#FEFF59"/>
<path d="M39.5468 24.3102H17.2505V21.7566H39.5468V24.3102Z" fill="#FEFF59"/>
<path d="M39.5468 24.3102H17.2505V21.7566H39.5468V24.3102Z" stroke="#FEFF59"/>
<path d="M38.9435 9.18806H39.4435V8.68806V1.03076V0.530762H38.9435H2.04932H1.54932V1.03076V8.68806V9.18806H2.04932H38.9435Z" fill="#FEFF59" stroke="#FEFF59"/>
<path d="M17.551 28.7455C16.5447 28.7455 15.5778 28.7001 14.6274 28.6245C11.9102 28.4079 9.30737 27.5184 7.09507 26.0504C4.88277 24.5823 3.14354 22.5905 2.06192 20.2862L0 15.3135L4.27511 18.8697C5.01249 19.3463 5.85124 19.6736 6.73607 19.8301C7.62091 19.9866 8.53173 19.9688 9.40852 19.7777C10.9912 19.5281 12.5587 19.2028 14.1046 18.8031L15.7488 18.4097C18.1602 17.9222 20.6606 17.9468 23.0601 18.4817C25.4597 19.0167 27.6952 20.0478 29.5969 21.4968C29.9817 21.7329 30.3467 21.9569 30.6755 22.1445L29.9258 23.225L30.2546 23.3915C27.775 27.6408 22.4279 28.7455 17.551 28.7455ZM6.74809 22.4048C8.8792 24.4954 11.7666 25.7977 14.8675 26.067C19.1426 26.412 24.5457 26.1275 27.1732 23.0706C25.6696 22.0022 23.9279 21.2528 22.0729 20.8761C20.2179 20.4994 18.2953 20.5046 16.4427 20.8915L14.7984 21.2819C13.1745 21.7019 11.528 22.0443 9.86563 22.3079C8.8356 22.4663 7.78738 22.4988 6.74809 22.4048Z" fill="#FEFF59"/>
<path d="M17.551 28.7455C16.5447 28.7455 15.5778 28.7001 14.6274 28.6245C11.9102 28.4079 9.30737 27.5184 7.09507 26.0504C4.88277 24.5823 3.14354 22.5905 2.06192 20.2862L0 15.3135L4.27511 18.8697C5.01249 19.3463 5.85124 19.6736 6.73607 19.8301C7.62091 19.9866 8.53173 19.9688 9.40852 19.7777C10.9912 19.5281 12.5587 19.2028 14.1046 18.8031L15.7488 18.4097C18.1602 17.9222 20.6606 17.9468 23.0601 18.4817C25.4597 19.0167 27.6952 20.0478 29.5969 21.4968C29.9817 21.7329 30.3467 21.9569 30.6755 22.1445L29.9258 23.225L30.2546 23.3915C27.775 27.6408 22.4279 28.7455 17.551 28.7455ZM6.74809 22.4048C8.8792 24.4954 11.7666 25.7977 14.8675 26.067C19.1426 26.412 24.5457 26.1275 27.1732 23.0706C25.6696 22.0022 23.9279 21.2528 22.0729 20.8761C20.2179 20.4994 18.2953 20.5046 16.4427 20.8915L14.7984 21.2819C13.1745 21.7019 11.528 22.0443 9.86563 22.3079C8.8356 22.4663 7.78738 22.4988 6.74809 22.4048Z" stroke="#FEFF59"/>
<path d="M17.551 47.2524C16.5447 47.2524 15.5778 47.207 14.6274 47.1313C11.9088 46.9137 9.30497 46.0224 7.09253 44.5521C4.88009 43.0818 3.14167 41.0875 2.06192 38.7809L0 33.8203L4.27511 37.3796C5.01249 37.8561 5.85124 38.1835 6.73607 38.34C7.62091 38.4965 8.53173 38.4786 9.40852 38.2876C10.9912 38.0379 12.5586 37.7126 14.1046 37.313L15.7488 36.9195C18.159 36.43 20.6587 36.4522 23.0581 36.9845C25.4576 37.5168 27.6937 38.5451 29.5969 39.9915L29.5971 39.9916C29.9818 40.2277 30.3467 40.4516 30.6755 40.6392L29.9356 41.7318L30.2645 41.8983C27.775 46.1476 22.4279 47.2524 17.551 47.2524ZM6.74809 40.9237C8.8792 43.0143 11.7666 44.3167 14.8675 44.5859C19.1426 44.931 24.5457 44.6465 27.1732 41.5896C25.6696 40.5211 23.9279 39.7718 22.0729 39.395C20.2179 39.0183 18.2953 39.0236 16.4427 39.4104L14.7984 39.8009C13.1742 40.2167 11.5278 40.5551 9.86563 40.8148C8.83618 40.9771 7.78796 41.0137 6.74809 40.9237Z" fill="#FEFF59"/>
<path d="M17.551 47.2524C16.5447 47.2524 15.5778 47.207 14.6274 47.1313C11.9088 46.9137 9.30497 46.0224 7.09253 44.5521C4.88009 43.0818 3.14167 41.0875 2.06192 38.7809L0 33.8203L4.27511 37.3796C5.01249 37.8561 5.85124 38.1835 6.73607 38.34C7.62091 38.4965 8.53173 38.4786 9.40852 38.2876C10.9912 38.0379 12.5586 37.7126 14.1046 37.313L15.7488 36.9195C18.159 36.43 20.6587 36.4522 23.0581 36.9845C25.4576 37.5168 27.6937 38.5451 29.5969 39.9915L29.5971 39.9916C29.9818 40.2277 30.3467 40.4516 30.6755 40.6392L29.9356 41.7318L30.2645 41.8983C27.775 46.1476 22.4279 47.2524 17.551 47.2524ZM6.74809 40.9237C8.8792 43.0143 11.7666 44.3167 14.8675 44.5859C19.1426 44.931 24.5457 44.6465 27.1732 41.5896C25.6696 40.5211 23.9279 39.7718 22.0729 39.395C20.2179 39.0183 18.2953 39.0236 16.4427 39.4104L14.7984 39.8009C13.1742 40.2167 11.5278 40.5551 9.86563 40.8148C8.83618 40.9771 7.78796 41.0137 6.74809 40.9237Z" stroke="#FEFF59"/>
<path d="M17.551 66.1656C16.5447 66.1656 15.5778 66.1202 14.6274 66.0445C11.9084 65.8266 9.30437 64.9349 7.0919 63.464C4.87943 61.9932 3.1412 59.9982 2.06192 57.6911L0 52.7214L4.27511 56.2807C5.01249 56.7573 5.85124 57.0846 6.73607 57.2411C7.62091 57.3976 8.53173 57.3797 9.40852 57.1887C10.9912 56.939 12.5587 56.6137 14.1046 56.2141L15.7488 55.8207C18.1597 55.3323 20.6599 55.356 23.0593 55.8899C25.4588 56.4237 27.6946 57.4538 29.5969 58.9017C29.9817 59.1378 30.3467 59.3618 30.6755 59.5494L29.9356 60.642L30.2645 60.8085C27.775 65.0488 22.4279 66.1656 17.551 66.1656ZM6.74809 59.8097C8.8792 61.9003 11.7666 63.2026 14.8675 63.4719C19.1426 63.8169 24.5457 63.5324 27.1732 60.4756C25.6696 59.4071 23.9279 58.6577 22.0729 58.281C20.2179 57.9043 18.2953 57.9096 16.4427 58.2964L14.7984 58.6869C13.1745 59.1078 11.5281 59.4513 9.86563 59.7159C8.83545 59.8731 7.78724 59.9047 6.74809 59.8097Z" fill="#FEFF59"/>
<path d="M17.551 66.1656C16.5447 66.1656 15.5778 66.1202 14.6274 66.0445C11.9084 65.8266 9.30437 64.9349 7.0919 63.464C4.87943 61.9932 3.1412 59.9982 2.06192 57.6911L0 52.7214L4.27511 56.2807C5.01249 56.7573 5.85124 57.0846 6.73607 57.2411C7.62091 57.3976 8.53173 57.3797 9.40852 57.1887C10.9912 56.939 12.5587 56.6137 14.1046 56.2141L15.7488 55.8207C18.1597 55.3323 20.6599 55.356 23.0593 55.8899C25.4588 56.4237 27.6946 57.4538 29.5969 58.9017C29.9817 59.1378 30.3467 59.3618 30.6755 59.5494L29.9356 60.642L30.2645 60.8085C27.775 65.0488 22.4279 66.1656 17.551 66.1656ZM6.74809 59.8097C8.8792 61.9003 11.7666 63.2026 14.8675 63.4719C19.1426 63.8169 24.5457 63.5324 27.1732 60.4756C25.6696 59.4071 23.9279 58.6577 22.0729 58.281C20.2179 57.9043 18.2953 57.9096 16.4427 58.2964L14.7984 58.6869C13.1745 59.1078 11.5281 59.4513 9.86563 59.7159C8.83545 59.8731 7.78724 59.9047 6.74809 59.8097Z" stroke="#FEFF59"/>
<path d="M17.551 85.0532C16.5447 85.0532 15.5778 85.0078 14.6274 84.9321C11.9084 84.7142 9.30437 83.8225 7.0919 82.3516C4.87943 80.8808 3.1412 78.8859 2.06192 76.5787L0 71.6272L4.27511 75.1865C5.01249 75.663 5.85124 75.9903 6.73607 76.1469C7.62091 76.3034 8.53173 76.2855 9.40852 76.0945C10.9912 75.8448 12.5587 75.5195 14.1046 75.1199L15.7488 74.7264C18.1583 74.2356 20.6575 74.2564 23.0569 74.7871C25.4563 75.3178 27.6929 76.3445 29.5969 77.7893L29.5971 77.7895C29.9818 78.0255 30.3467 78.2494 30.6755 78.437L29.9356 79.5296L30.2645 79.6961C27.775 83.9545 22.4279 85.0532 17.551 85.0532ZM6.74809 78.7306C8.8792 80.8212 11.7666 82.1235 14.8675 82.3928C19.1426 82.7378 24.5457 82.4533 27.1732 79.3965C25.6704 78.3265 23.9291 77.5754 22.0741 77.1971C20.219 76.8188 18.296 76.8226 16.4427 77.2083L14.7984 77.5987C13.1744 78.0176 11.5279 78.359 9.86563 78.6217C8.83618 78.784 7.78796 78.8206 6.74809 78.7306Z" fill="#FEFF59"/>
<path d="M17.551 85.0532C16.5447 85.0532 15.5778 85.0078 14.6274 84.9321C11.9084 84.7142 9.30437 83.8225 7.0919 82.3516C4.87943 80.8808 3.1412 78.8859 2.06192 76.5787L0 71.6272L4.27511 75.1865C5.01249 75.663 5.85124 75.9903 6.73607 76.1469C7.62091 76.3034 8.53173 76.2855 9.40852 76.0945C10.9912 75.8448 12.5587 75.5195 14.1046 75.1199L15.7488 74.7264C18.1583 74.2356 20.6575 74.2564 23.0569 74.7871C25.4563 75.3178 27.6929 76.3445 29.5969 77.7893L29.5971 77.7895C29.9818 78.0255 30.3467 78.2494 30.6755 78.437L29.9356 79.5296L30.2645 79.6961C27.775 83.9545 22.4279 85.0532 17.551 85.0532ZM6.74809 78.7306C8.8792 80.8212 11.7666 82.1235 14.8675 82.3928C19.1426 82.7378 24.5457 82.4533 27.1732 79.3965C25.6704 78.3265 23.9291 77.5754 22.0741 77.1971C20.219 76.8188 18.296 76.8226 16.4427 77.2083L14.7984 77.5987C13.1744 78.0176 11.5279 78.359 9.86563 78.6217C8.83618 78.784 7.78796 78.8206 6.74809 78.7306Z" stroke="#FEFF59"/>
<path d="M17.551 103.783C16.5447 103.783 15.5778 103.738 14.6274 103.662C11.9088 103.445 9.30497 102.553 7.09253 101.083C4.88009 99.6128 3.14167 97.6185 2.06192 95.3119L0 90.3513L4.27511 93.9106C5.01249 94.3871 5.85124 94.7145 6.73607 94.871C7.62091 95.0275 8.53173 95.0096 9.40852 94.8186C10.9912 94.5689 12.5586 94.2436 14.1046 93.844L15.7488 93.4505C18.159 92.961 20.6587 92.9832 23.0581 93.5155C25.4576 94.0478 27.6937 95.0761 29.5969 96.5225L29.5971 96.5226C29.9818 96.7587 30.3467 96.9826 30.6755 97.1702L29.9258 98.2628L30.2546 98.4293C27.775 102.679 22.4279 103.783 17.551 103.783ZM6.74809 97.4547C8.8792 99.5453 11.7666 100.848 14.8675 101.117C19.1426 101.462 24.5457 101.177 27.1732 98.1206C25.6704 97.0506 23.9291 96.2995 22.0741 95.9213C20.219 95.543 18.296 95.5467 16.4427 95.9324L14.7984 96.3228C13.1744 96.7417 11.5279 97.0832 9.86563 97.3458C8.83617 97.5081 7.78796 97.5447 6.74809 97.4547Z" fill="#FEFF59"/>
<path d="M17.551 103.783C16.5447 103.783 15.5778 103.738 14.6274 103.662C11.9088 103.445 9.30497 102.553 7.09253 101.083C4.88009 99.6128 3.14167 97.6185 2.06192 95.3119L0 90.3513L4.27511 93.9106C5.01249 94.3871 5.85124 94.7145 6.73607 94.871C7.62091 95.0275 8.53173 95.0096 9.40852 94.8186C10.9912 94.5689 12.5586 94.2436 14.1046 93.844L15.7488 93.4505C18.159 92.961 20.6587 92.9832 23.0581 93.5155C25.4576 94.0478 27.6937 95.0761 29.5969 96.5225L29.5971 96.5226C29.9818 96.7587 30.3467 96.9826 30.6755 97.1702L29.9258 98.2628L30.2546 98.4293C27.775 102.679 22.4279 103.783 17.551 103.783ZM6.74809 97.4547C8.8792 99.5453 11.7666 100.848 14.8675 101.117C19.1426 101.462 24.5457 101.177 27.1732 98.1206C25.6704 97.0506 23.9291 96.2995 22.0741 95.9213C20.219 95.543 18.296 95.5467 16.4427 95.9324L14.7984 96.3228C13.1744 96.7417 11.5279 97.0832 9.86563 97.3458C8.83617 97.5081 7.78796 97.5447 6.74809 97.4547Z" stroke="#FEFF59"/>
<path d="M17.551 122.509C16.5447 122.509 15.5778 122.464 14.6274 122.388C11.9087 122.171 9.30471 121.279 7.09221 119.809C4.87972 118.339 3.14137 116.344 2.06192 114.037L0 109.077L4.27511 112.636C5.01249 113.113 5.85124 113.44 6.73607 113.597C7.62091 113.753 8.53173 113.735 9.40852 113.544C10.9912 113.294 12.5586 112.969 14.1046 112.57L15.7488 112.176C18.159 111.687 20.6587 111.709 23.0581 112.241C25.4576 112.773 27.6937 113.802 29.5969 115.248L29.5971 115.248C29.9818 115.484 30.3467 115.708 30.6755 115.896L29.9258 116.982L30.2546 117.149C27.775 121.404 22.4279 122.509 17.551 122.509ZM6.74809 116.18C8.8792 118.271 11.7666 119.573 14.8675 119.843C19.1426 120.188 24.5457 119.903 27.1732 116.846C25.6704 115.776 23.9291 115.025 22.0741 114.647C20.219 114.269 18.296 114.272 16.4427 114.658L14.7984 115.048C13.1745 115.468 11.528 115.811 9.86563 116.074C8.83603 116.236 7.78781 116.271 6.74809 116.18Z" fill="#FEFF59"/>
<path d="M17.551 122.509C16.5447 122.509 15.5778 122.464 14.6274 122.388C11.9087 122.171 9.30471 121.279 7.09221 119.809C4.87972 118.339 3.14137 116.344 2.06192 114.037L0 109.077L4.27511 112.636C5.01249 113.113 5.85124 113.44 6.73607 113.597C7.62091 113.753 8.53173 113.735 9.40852 113.544C10.9912 113.294 12.5586 112.969 14.1046 112.57L15.7488 112.176C18.159 111.687 20.6587 111.709 23.0581 112.241C25.4576 112.773 27.6937 113.802 29.5969 115.248L29.5971 115.248C29.9818 115.484 30.3467 115.708 30.6755 115.896L29.9258 116.982L30.2546 117.149C27.775 121.404 22.4279 122.509 17.551 122.509ZM6.74809 116.18C8.8792 118.271 11.7666 119.573 14.8675 119.843C19.1426 120.188 24.5457 119.903 27.1732 116.846C25.6704 115.776 23.9291 115.025 22.0741 114.647C20.219 114.269 18.296 114.272 16.4427 114.658L14.7984 115.048C13.1745 115.468 11.528 115.811 9.86563 116.074C8.83603 116.236 7.78781 116.271 6.74809 116.18Z" stroke="#FEFF59"/>
<path d="M375.142 122.482C370.266 122.482 364.918 121.38 362.435 117.131L362.764 116.964L362.024 115.871C362.353 115.684 362.718 115.46 363.103 115.224L363.103 115.224C365.003 113.783 367.233 112.759 369.626 112.228C372.018 111.697 374.511 111.673 376.915 112.158L378.559 112.551C380.105 112.951 381.673 113.276 383.255 113.526C384.132 113.717 385.043 113.735 385.928 113.578C386.813 113.422 387.651 113.094 388.389 112.618L392.664 109.059L390.605 114.019C389.525 116.325 387.787 118.319 385.574 119.789C383.362 121.259 380.758 122.15 378.04 122.367C377.132 122.433 376.149 122.482 375.142 122.482ZM365.52 116.822C368.151 119.879 373.564 120.151 377.826 119.818C380.927 119.549 383.814 118.247 385.945 116.156C384.907 116.246 383.859 116.209 382.831 116.047C381.163 115.785 379.511 115.443 377.882 115.024L376.238 114.634C374.386 114.249 372.466 114.246 370.613 114.624C368.761 115.002 367.022 115.754 365.52 116.822Z" fill="#FEFF59"/>
<path d="M375.142 122.482C370.266 122.482 364.918 121.38 362.435 117.131L362.764 116.964L362.024 115.871C362.353 115.684 362.718 115.46 363.103 115.224L363.103 115.224C365.003 113.783 367.233 112.759 369.626 112.228C372.018 111.697 374.511 111.673 376.915 112.158L378.559 112.551C380.105 112.951 381.673 113.276 383.255 113.526C384.132 113.717 385.043 113.735 385.928 113.578C386.813 113.422 387.651 113.094 388.389 112.618L392.664 109.059L390.605 114.019C389.525 116.325 387.787 118.319 385.574 119.789C383.362 121.259 380.758 122.15 378.04 122.367C377.132 122.433 376.149 122.482 375.142 122.482ZM365.52 116.822C368.151 119.879 373.564 120.151 377.826 119.818C380.927 119.549 383.814 118.247 385.945 116.156C384.907 116.246 383.859 116.209 382.831 116.047C381.163 115.785 379.511 115.443 377.882 115.024L376.238 114.634C374.386 114.249 372.466 114.246 370.613 114.624C368.761 115.002 367.022 115.754 365.52 116.822Z" stroke="#FEFF59"/>
</svg>
